:FULLY-SPECIFIED
:FORCE-ALL-JOINTS-BE-3DOF
:DEGREES
849
root 3.58872 16.5247 27.4562 -14.5983 28.3669 355.486
lfemur -17.2709 7.96305 -18.1728
ltibia 37.9941 0 0
lfoot -8.53325 -18.4616 0
ltoes 22.3873 0 0
rfemur -51.9706 -6.4454 10.5756
rtibia 48.4955 0 0
rfoot -0.00870429 -4.31394 0
rtoes -16.2385 0 0
lowerback 11.0714 -0.423203 -3.82682
upperback 3.39435 -1.03488 -1.64127
thorax -2.44553 -0.504249 0.755009
lowerneck -6.48535 -3.84171 1.85433
upperneck 5.77412 -5.57049 3.73398
head 3.09759 -2.56883 0.641662
lclavicle -3.50457e-15 1.24098e-14 0
lhumerus -38.9325 -20.8703 83.1613
lradius 59.1799 0 0
lwrist 21.1131 0 0
lhand 3.25759 2.49101 0
lfingers 7.12502 0 0
lthumb 28.6671 29.8727 0
rclavicle -3.50457e-15 1.24098e-14 0
rhumerus -46.8054 6.73522 -62.0207
rradius 57.0889 0 0
rwrist 1.97993 0 0
rhand -9.92387 -28.1168 0
rfingers 7.12502 0 0
rthumb 16.051 -777.366 0
850
root 3.6172 16.5272 27.5851 -14.6036 27.6573 355.716
lfemur -16.9884 7.88494 -18.2301
ltibia 37.8137 0 0
lfoot -8.33871 -19.0282 0
ltoes 22.4775 0 0
rfemur -52.4981 -6.20812 10.4173
rtibia 48.4442 0 0
rfoot 0.252167 -3.90558 0
rtoes -16.1088 0 0
lowerback 11.2152 -0.497198 -3.86918
upperback 3.45661 -1.14009 -1.60979
thorax -2.46305 -0.556833 0.817213
lowerneck -6.50207 -3.80101 1.89107
upperneck 5.89391 -5.52446 3.71368
head 3.13688 -2.5437 0.628985
lclavicle -3.64179e-15 1.25897e-14 0
lhumerus -38.6883 -21.004 82.9924
lradius 59.014 0 0
lwrist 21.2318 0 0
lhand 3.61324 2.60077 0
lfingers 7.12502 0 0
lthumb 29.0087 29.9457 0
rclavicle -3.64179e-15 1.25897e-14 0
rhumerus -47.0393 6.13533 -61.289
rradius 56.7552 0 0
rwrist 1.92277 0 0
rhand -9.72122 -28.233 0
rfingers 7.12502 0 0
rthumb 16.2465 -777.472 0
851
root 3.64567 16.5297 27.714 -14.6089 26.9478 355.946
lfemur -16.7059 7.80683 -18.2875
ltibia 37.6333 0 0
lfoot -8.14417 -19.5949 0
ltoes 22.5677 0 0
rfemur -53.0256 -5.97083 10.2589
rtibia 48.3928 0 0
rfoot 0.513038 -3.49723 0
rtoes -15.979 0 0
lowerback 11.3591 -0.571193 -3.91155
upperback 3.51887 -1.24529 -1.5783
thorax -2.48057 -0.609417 0.879418
lowerneck -6.51879 -3.76031 1.92781
upperneck 6.0137 -5.47842 3.69339
head 3.17617 -2.51856 0.616308
lclavicle -3.77901e-15 1.27695e-14 0
lhumerus -38.4441 -21.1378 82.8234
lradius 58.848 0 0
lwrist 21.3505 0 0
lhand 3.96889 2.71052 0
lfingers 7.12502 0 0
lthumb 29.3502 30.0187 0
rclavicle -3.77901e-15 1.27695e-14 0
rhumerus -47.2733 5.53545 -60.5573
rradius 56.4215 0 0
rwrist 1.86561 0 0
rhand -9.51856 -28.3492 0
rfingers 7.12502 0 0
rthumb 16.4419 -777.578 0
852
root 3.67414 16.5322 27.8429 -14.6141 26.2383 356.177
lfemur -16.4234 7.72872 -18.3448
ltibia 37.4529 0 0
lfoot -7.94963 -20.1615 0
ltoes 22.6579 0 0
rfemur -53.5531 -5.73355 10.1006
rtibia 48.3415 0 0
rfoot 0.773909 -3.08888 0
rtoes -15.8492 0 0
lowerback 11.503 -0.645189 -3.95391
upperback 3.58113 -1.3505 -1.54682
thorax -2.49809 -0.662001 0.941623
lowerneck -6.53551 -3.71961 1.96456
upperneck 6.13349 -5.43238 3.67309
head 3.21546 -2.49343 0.603631
lclavicle -3.91623e-15 1.29494e-14 0
lhumerus -38.1999 -21.2716 82.6545
lradius 58.682 0 0
lwrist 21.4692 0 0
lhand 4.32454 2.82028 0
lfingers 7.12502 0 0
lthumb 29.6917 30.0916 0
rclavicle -3.91623e-15 1.29494e-14 0
rhumerus -47.5072 4.93557 -59.8257
rradius 56.0877 0 0
rwrist 1.80845 0 0
rhand -9.31591 -28.4653 0
rfingers 7.12502 0 0
rthumb 16.6373 -777.683 0
853
root 3.70262 16.5347 27.9718 -14.6194 25.5288 356.407
lfemur -16.141 7.65061 -18.4021
ltibia 37.2725 0 0
lfoot -7.75508 -20.7282 0
ltoes 22.7481 0 0
rfemur -54.0807 -5.49626 9.94224
rtibia 48.2902 0 0
rfoot 1.03478 -2.68052 0
rtoes -15.7195 0 0
lowerback 11.6468 -0.719184 -3.99628
upperback 3.64339 -1.45571 -1.51533
thorax -2.51561 -0.714585 1.00383
lowerneck -6.55224 -3.67891 2.0013
upperneck 6.25329 -5.38634 3.65279
head 3.25475 -2.4683 0.590953
lclavicle -4.05345e-15 1.31292e-14 0
lhumerus -37.9557 -21.4053 82.4855
lradius 58.516 0 0
lwrist 21.5879 0 0
lhand 4.68018 2.93003 0
lfingers 7.12502 0 0
lthumb 30.0332 30.1646 0
rclavicle -4.05345e-15 1.31292e-14 0
rhumerus -47.7411 4.33568 -59.094
rradius 55.754 0 0
rwrist 1.75129 0 0
rhand -9.11326 -28.5815 0
rfingers 7.12502 0 0
rthumb 16.8327 -777.789 0
854
root 3.73109 16.5372 28.1007 -14.6247 24.8192 356.638
lfemur -15.8585 7.5725 -18.4594
ltibia 37.0921 0 0
lfoot -7.56054 -21.2948 0
ltoes 22.8383 0 0
rfemur -54.6082 -5.25897 9.78389
rtibia 48.2389 0 0
rfoot 1.29565 -2.27217 0
rtoes -15.5897 0 0
lowerback 11.7907 -0.793179 -4.03864
upperback 3.70564 -1.56092 -1.48384
thorax -2.53313 -0.76717 1.06603
lowerneck -6.56896 -3.6382 2.03804
upperneck 6.37308 -5.3403 3.6325
head 3.29404 -2.44316 0.578276
lclavicle -4.19067e-15 1.33091e-14 0
lhumerus -37.7115 -21.5391 82.3166
lradius 58.35 0 0
lwrist 21.7066 0 0
lhand 5.03583 3.03979 0
lfingers 7.12502 0 0
lthumb 30.3748 30.2376 0
rclavicle -4.19067e-15 1.33091e-14 0
rhumerus -47.975 3.7358 -58.3623
rradius 55.4203 0 0
rwrist 1.69414 0 0
rhand -8.91061 -28.6977 0
rfingers 7.12502 0 0
rthumb 17.0281 -777.895 0
855
root 3.75956 16.5397 28.2296 -14.63 24.1097 356.868
lfemur -15.576 7.49439 -18.5167
ltibia 36.9117 0 0
lfoot -7.366 -21.8615 0
ltoes 22.9286 0 0
rfemur -55.1357 -5.02169 9.62554
rtibia 48.1876 0 0
rfoot 1.55652 -1.86382 0
rtoes -15.46 0 0
lowerback 11.9345 -0.867174 -4.08101
upperback 3.7679 -1.66613 -1.45236
thorax -2.55065 -0.819754 1.12824
lowerneck -6.58568 -3.5975 2.07478
upperneck 6.49287 -5.29426 3.6122
head 3.33333 -2.41803 0.565599
lclavicle -4.32789e-15 1.34889e-14 0
lhumerus -37.4674 -21.6729 82.1476
lradius 58.184 0 0
lwrist 21.8253 0 0
lhand 5.39148 3.14954 0
lfingers 7.12502 0 0
lthumb 30.7163 30.3106 0
rclavicle -4.32789e-15 1.34889e-14 0
rhumerus -48.209 3.13591 -57.6306
rradius 55.0865 0 0
rwrist 1.63698 0 0
rhand -8.70795 -28.8138 0
rfingers 7.12502 0 0
rthumb 17.2235 -778.001 0
856
root 3.78804 16.5422 28.3585 -14.6352 23.4002 357.099
lfemur -15.2935 7.41628 -18.574
ltibia 36.7313 0 0
lfoot -7.17146 -22.4282 0
ltoes 23.0188 0 0
rfemur -55.6633 -4.7844 9.46719
rtibia 48.1363 0 0
rfoot 1.81739 -1.45546 0
rtoes -15.3302 0 0
lowerback 12.0784 -0.941169 -4.12338
upperback 3.83016 -1.77134 -1.42087
thorax -2.56817 -0.872338 1.19044
lowerneck -6.60241 -3.5568 2.11152
upperneck 6.61266 -5.24822 3.5919
head 3.37262 -2.39289 0.552922
lclavicle -4.46511e-15 1.36688e-14 0
lhumerus -37.2232 -21.8066 81.9787
lradius 58.018 0 0
lwrist 21.944 0 0
lhand 5.74713 3.25929 0
lfingers 7.12502 0 0
lthumb 31.0578 30.3836 0
rclavicle -4.46511e-15 1.36688e-14 0
rhumerus -48.4429 2.53603 -56.899
rradius 54.7528 0 0
rwrist 1.57982 0 0
rhand -8.5053 -28.93 0
rfingers 7.12502 0 0
rthumb 17.419 -778.107 0
857
root 3.81651 16.5447 28.4874 -14.6405 22.6907 357.329
lfemur -15.011 7.33817 -18.6314
ltibia 36.5509 0 0
lfoot -6.97692 -22.9948 0
ltoes 23.109 0 0
rfemur -56.1908 -4.54712 9.30884
rtibia 48.0849 0 0
rfoot 2.07826 -1.04711 0
rtoes -15.2004 0 0
lowerback 12.2222 -1.01516 -4.16574
upperback 3.89242 -1.87655 -1.38939
thorax -2.58569 -0.924922 1.25265
lowerneck -6.61913 -3.5161 2.14827
upperneck 6.73245 -5.20218 3.57161
head 3.41191 -2.36776 0.540245
lclavicle -4.60233e-15 1.38486e-14 0
lhumerus -36.979 -21.9404 81.8097
lradius 57.852 0 0
lwrist 22.0627 0 0
lhand 6.10278 3.36905 0
lfingers 7.12502 0 0
lthumb 31.3993 30.4566 0
rclavicle -4.60233e-15 1.38486e-14 0
rhumerus -48.6768 1.93615 -56.1673
rradius 54.4191 0 0
rwrist 1.52266 0 0
rhand -8.30265 -29.0462 0
rfingers 7.12502 0 0
rthumb 17.6144 -778.212 0
858
root 3.84499 16.5472 28.6164 -14.6458 21.9811 357.559
lfemur -14.7285 7.26006 -18.6887
ltibia 36.3705 0 0
lfoot -6.78238 -23.5615 0
ltoes 23.1992 0 0
rfemur -56.7183 -4.30983 9.15049
rtibia 48.0336 0 0
rfoot 2.33913 -0.638759 0
rtoes -15.0707 0 0
lowerback 12.3661 -1.08916 -4.20811
upperback 3.95468 -1.98176 -1.3579
thorax -2.6032 -0.977506 1.31485
lowerneck -6.63585 -3.4754 2.18501
upperneck 6.85224 -5.15614 3.55131
head 3.4512 -2.34262 0.527567
lclavicle -4.73955e-15 1.40285e-14 0
lhumerus -36.7348 -22.0742 81.6408
lradius 57.686 0 0
lwrist 22.1814 0 0
lhand 6.45842 3.4788 0
lfingers 7.12502 0 0
lthumb 31.7409 30.5296 0
rclavicle -4.73955e-15 1.40285e-14 0
rhumerus -48.9107 1.33626 -55.4356
rradius 54.0854 0 0
rwrist 1.4655 0 0
rhand -8.1 -29.1623 0
rfingers 7.12502 0 0
rthumb 17.8098 -778.318 0
859
root 3.87346 16.5497 28.7453 -14.651 21.2716 357.79
lfemur -14.446 7.18194 -18.746
ltibia 36.1902 0 0
lfoot -6.58784 -24.1281 0
ltoes 23.2894 0 0
rfemur -57.2459 -4.07255 8.99214
rtibia 47.9823 0 0
rfoot 2.60001 -0.230405 0
rtoes -14.9409 0 0
lowerback 12.5099 -1.16315 -4.25047
upperback 4.01694 -2.08697 -1.32642
thorax -2.62072 -1.03009 1.37706
lowerneck -6.65258 -3.4347 2.22175
upperneck 6.97203 -5.1101 3.53101
head 3.4905 -2.31749 0.51489
lclavicle -4.87676e-15 1.42083e-14 0
lhumerus -36.4906 -22.208 81.4718
lradius 57.52 0 0
lwrist 22.3002 0 0
lhand 6.81407 3.58856 0
lfingers 7.12502 0 0
lthumb 32.0824 30.6026 0
rclavicle -4.87676e-15 1.42083e-14 0
rhumerus -49.1447 0.736379 -54.704
rradius 53.7516 0 0
rwrist 1.40834 0 0
rhand -7.89734 -29.2785 0
rfingers 7.12502 0 0
rthumb 18.0052 -778.424 0
860
root 3.90193 16.5522 28.8742 -14.6563 20.5621 358.02
lfemur -14.1635 7.10383 -18.8033
ltibia 36.0098 0 0
lfoot -6.3933 -24.6948 0
ltoes 23.3796 0 0
rfemur -57.7734 -3.83526 8.83379
rtibia 47.931 0 0
rfoot 2.86088 0.177948 0
rtoes -14.8111 0 0
lowerback 12.6538 -1.23715 -4.29284
upperback 4.0792 -2.19217 -1.29493
thorax -2.63824 -1.08267 1.43926
lowerneck -6.6693 -3.394 2.25849
upperneck 7.09182 -5.06406 3.51072
head 3.52979 -2.29236 0.502213
lclavicle -5.01398e-15 1.43882e-14 0
lhumerus -36.2464 -22.3417 81.3029
lradius 57.354 0 0
lwrist 22.4189 0 0
lhand 7.16972 3.69831 0
lfingers 7.12502 0 0
lthumb 32.4239 30.6755 0
rclavicle -5.01398e-15 1.43882e-14 0
rhumerus -49.3786 0.136495 -53.9723
rradius 53.4179 0 0
rwrist 1.35118 0 0
rhand -7.69469 -29.3946 0
rfingers 7.12502 0 0
rthumb 18.2006 -778.53 0
861
root 3.93041 16.5547 29.0031 -14.6616 19.8526 358.251
lfemur -13.8811 7.02572 -18.8606
ltibia 35.8294 0 0
lfoot -6.19875 -25.2614 0
ltoes 23.4699 0 0
rfemur -58.3009 -3.59798 8.67544
rtibia 47.8797 0 0
rfoot 3.12175 0.586301 0
rtoes -14.6814 0 0
lowerback 12.7976 -1.31114 -4.3352
upperback 4.14146 -2.29738 -1.26345
thorax -2.65576 -1.13526 1.50147
lowerneck -6.68602 -3.3533 2.29523
upperneck 7.21162 -5.01802 3.49042
head 3.56908 -2.26722 0.489536
lclavicle -5.1512e-15 1.4568e-14 0
lhumerus -36.0023 -22.4755 81.1339
lradius 57.188 0 0
lwrist 22.5376 0 0
lhand 7.52537 3.80807 0
lfingers 7.12502 0 0
lthumb 32.7654 30.7485 0
rclavicle -5.1512e-15 1.4568e-14 0
rhumerus -49.6125 -0.463389 -53.2406
rradius 53.0842 0 0
rwrist 1.29403 0 0
rhand -7.49204 -29.5108 0
rfingers 7.12502 0 0
rthumb 18.396 -778.636 0
862
root 3.95888 16.5572 29.132 -14.6669 19.143 358.481
lfemur -13.5986 6.94761 -18.918
ltibia 35.649 0 0
lfoot -6.00421 -25.8281 0
ltoes 23.5601 0 0
rfemur -58.8284 -3.36069 8.51709
rtibia 47.8283 0 0
rfoot 3.38262 0.994654 0
rtoes -14.5516 0 0
lowerback 12.9415 -1.38514 -4.37757
upperback 4.20372 -2.40259 -1.23196
thorax -2.67328 -1.18784 1.56367
lowerneck -6.70274 -3.3126 2.33198
upperneck 7.33141 -4.97198 3.47012
head 3.60837 -2.24209 0.476858
lclavicle -5.28842e-15 1.47479e-14 0
lhumerus -35.7581 -22.6093 80.965
lradius 57.022 0 0
lwrist 22.6563 0 0
lhand 7.88101 3.91782 0
lfingers 7.12502 0 0
lthumb 33.107 30.8215 0
rclavicle -5.28842e-15 1.47479e-14 0
rhumerus -49.8464 -1.06327 -52.5089
rradius 52.7505 0 0
rwrist 1.23687 0 0
rhand -7.28939 -29.627 0
rfingers 7.12502 0 0
rthumb 18.5915 -778.741 0
